<?xml version="1.0" encoding="iso-8859-1"?>
<!-- Generator: Adobe Illustrator 19.0.0, SVG Export Plug-In . SVG Version: 6.00 Build 0)  -->
<svg xmlns="http://www.w3.org/2000/svg" xmlns:xlink="http://www.w3.org/1999/xlink" version="1.1" id="Layer_1" x="0px" y="0px" viewBox="0 0 512 512" style="enable-background:new 0 0 512 512;" xml:space="preserve">
<path style="fill:#FFDC5E;" d="M85.388,225.628h393.767c13.896,0,25.266,11.37,25.266,25.266V450.27  c0,13.896-11.37,25.266-25.266,25.266H32.845c-13.896,0-25.266-11.37-25.266-25.266V250.893c0-13.896,11.37-25.266,25.266-25.266  h21.18H85.388z"/>
<path style="fill:#E5BD2B;" d="M480.926,225.628h-17.18v185.455c0,13.896-11.37,25.266-25.266,25.266H9.351v13.921  c0,13.896,11.37,25.266,25.266,25.266h446.309c13.896,0,25.266-11.37,25.266-25.266V250.893  C506.192,236.997,494.822,225.628,480.926,225.628z"/>
<circle style="fill:#565159;" cx="256.002" cy="73.109" r="30.123"/>
<path d="M479.155,218.048h-5.009c-0.099-0.101-0.192-0.206-0.298-0.303L277.673,37.438c-12.329-11.334-31-11.412-43.426-0.183  l-98.039,88.603c-3.105,2.807-3.348,7.601-0.541,10.706c2.807,3.107,7.601,3.348,10.706,0.542l71.951-65.026  c-0.009,0.344-0.026,0.684-0.026,1.03c0,20.79,16.913,37.703,37.702,37.703s37.703-16.913,37.703-37.703  c0-0.12-0.008-0.239-0.009-0.358l158.083,145.297H85.387c-4.187,0-7.58,3.393-7.58,7.58c0,4.187,3.393,7.58,7.58,7.58h393.768  c9.752,0,17.686,7.934,17.686,17.686V450.27c0,9.752-7.934,17.686-17.686,17.686H32.845c-9.752,0-17.686-7.934-17.686-17.686  V250.893c0-9.752,7.934-17.686,17.686-17.686h21.18c4.187,0,7.58-3.393,7.58-7.58c0-3.359-2.187-6.203-5.213-7.198l65.234-58.957  c3.105-2.807,3.348-7.601,0.541-10.707c-2.807-3.105-7.6-3.348-10.707-0.541l-76.872,69.476c-0.122,0.111-0.232,0.229-0.347,0.347  h-1.396C14.734,218.048,0,232.782,0,250.893V450.27c0,18.111,14.734,32.845,32.845,32.845h446.309  c18.111,0,32.845-14.734,32.845-32.845V250.893C512,232.782,497.266,218.048,479.155,218.048z M256,95.653  c-12.431,0-22.543-10.113-22.543-22.544S243.569,50.566,256,50.566s22.544,10.112,22.544,22.543S268.43,95.653,256,95.653z"/>
<path d="M117.241,319.914h38.879c4.187,0,7.58-3.393,7.58-7.58s-3.393-7.58-7.58-7.58h-38.879c-16.16,0-29.308,13.148-29.308,29.308  s13.148,29.308,29.308,29.308h17.15c7.802,0,14.149,6.348,14.149,14.15c0,7.802-6.347,14.149-14.149,14.149H95.512  c-4.187,0-7.58,3.393-7.58,7.58s3.393,7.58,7.58,7.58h38.879c16.16,0,29.308-13.148,29.308-29.308  c0-16.161-13.148-29.309-29.308-29.309h-17.15c-7.802,0-14.149-6.347-14.149-14.149S109.439,319.914,117.241,319.914z"/>
<path d="M250.774,406.829c4.187,0,7.58-3.393,7.58-7.58v-55.933c0-21.416-17.423-38.84-38.84-38.84s-38.84,17.423-38.84,38.84  v55.933c0,4.187,3.393,7.58,7.58,7.58c4.187,0,7.58-3.393,7.58-7.58v-31.532h47.361v31.532  C243.194,403.435,246.587,406.829,250.774,406.829z M195.832,352.558v-9.242c0-13.057,10.624-23.681,23.681-23.681  c13.057,0,23.681,10.624,23.681,23.681v9.242H195.832z"/>
<path d="M292.65,304.755c-4.187,0-7.58,3.393-7.58,7.58v86.915c0,4.187,3.393,7.58,7.58,7.58h44.247c4.187,0,7.58-3.393,7.58-7.58  s-3.393-7.58-7.58-7.58H300.23v-79.335C300.23,308.147,296.837,304.755,292.65,304.755z"/>
<path d="M416.639,319.914c4.187,0,7.58-3.393,7.58-7.58s-3.393-7.58-7.58-7.58h-44.247c-4.187,0-7.58,3.393-7.58,7.58v86.915  c0,4.187,3.393,7.58,7.58,7.58h44.247c4.187,0,7.58-3.393,7.58-7.58s-3.393-7.58-7.58-7.58h-36.668v-28.438h22.571  c4.187,0,7.58-3.393,7.58-7.58s-3.393-7.58-7.58-7.58h-22.571v-28.158H416.639z"/>
<path d="M151.917,253.874h-79.9c-4.187,0-7.58,3.393-7.58,7.58c0,4.187,3.393,7.58,7.58,7.58h79.901c4.187,0,7.58-3.393,7.58-7.58  C159.496,257.267,156.104,253.874,151.917,253.874z"/>
<path d="M35.515,261.453v89.127c0,4.187,3.393,7.58,7.58,7.58s7.58-3.393,7.58-7.58v-89.127c0-4.187-3.393-7.58-7.58-7.58  S35.515,257.267,35.515,261.453z"/>
<g>
</g>
<g>
</g>
<g>
</g>
<g>
</g>
<g>
</g>
<g>
</g>
<g>
</g>
<g>
</g>
<g>
</g>
<g>
</g>
<g>
</g>
<g>
</g>
<g>
</g>
<g>
</g>
<g>
</g>
</svg>
